<svg width="21" height="21" viewBox="0 0 21 21" fill="none" xmlns="http://www.w3.org/2000/svg">
<path d="M21 2.61905C21 1.17259 19.8274 0 18.381 0H2.61905C1.17259 0 0 1.17259 0 2.61905V18.381C0 19.8274 1.17259 21 2.61905 21H18.381C19.8274 21 21 19.8274 21 18.381V2.61905Z" fill="black"/>
<path fill-rule="evenodd" clip-rule="evenodd" d="M11.559 5.00732H7.80411V5.7313H11.059L14.4479 14.6674H15.6161V13.9434H14.9474L11.559 5.00732ZM10.7878 6.12452H7.80254V6.84797H8.77386L6.08515 13.9434H5.41641V14.6674H6.58465L9.54932 6.84797H9.9698L8.1596 11.6223H12.8724L10.7878 6.12452ZM9.2079 10.8989L10.5163 7.44896L11.8262 10.8989H9.2079ZM13.0216 12.0155H8.01033L7.00513 14.6674H8.81264V13.9434H8.05344L8.51034 12.7395H12.5221L12.9786 13.9434H12.2199V14.6674H14.0269L13.0216 12.0155ZM8.81264 15.0175H5.41641V15.7415H8.81264V15.0175ZM15.6161 15.0175H12.2199V15.7415H15.6161V15.0175Z" fill="white"/>
</svg>
