<svg width="21" height="21" viewBox="0 0 21 21" fill="none" xmlns="http://www.w3.org/2000/svg">
<path d="M21 2.61905C21 1.17259 19.8274 0 18.381 0H2.61905C1.17259 0 0 1.17259 0 2.61905V18.381C0 19.8274 1.17259 21 2.61905 21H18.381C19.8274 21 21 19.8274 21 18.381V2.61905Z" fill="#F7F7F4"/>
<path fill-rule="evenodd" clip-rule="evenodd" d="M11.559 5.00732H7.80408V5.7313H11.059L14.4478 14.6674H15.6161V13.9434H14.9473L11.559 5.00732ZM10.7878 6.12452H7.80251V6.84797H8.77383L6.08512 13.9434H5.41638V14.6674H6.58462L9.54929 6.84797H9.96977L8.15957 11.6223H12.8723L10.7878 6.12452ZM9.20787 10.8989L10.5162 7.44896L11.8261 10.8989H9.20787ZM13.0216 12.0155H8.01029L7.00509 14.6674H8.81261V13.9434H8.05341L8.51031 12.7395H12.5221L12.9786 13.9434H12.2199V14.6674H14.0268L13.0216 12.0155ZM8.81261 15.0175H5.41638V15.7415H8.81261V15.0175ZM15.6161 15.0175H12.2199V15.7415H15.6161V15.0175Z" fill="black"/>
</svg>
