<svg width="21" height="21" viewBox="0 0 21 21" fill="none" xmlns="http://www.w3.org/2000/svg">
<rect width="21" height="21" rx="3.0875" fill="white"/>
<path d="M15.5592 12.0506C15.367 12.5984 15.0619 13.0992 14.6641 13.5202C14.2662 13.9412 13.7844 14.2728 13.2504 14.4935V12.0506L14.5697 10.8457L13.2504 9.65749V7.978C13.7953 7.96682 14.3145 7.74266 14.698 7.35298C15.0816 6.96329 15.2993 6.43869 15.3052 5.89026C15.3052 4.44975 13.9397 3.9386 13.1646 3.9386C12.9548 3.9321 12.7451 3.95444 12.5412 4.00498V4.07468C12.6435 4.07468 12.7952 4.05809 12.8447 4.05809C13.3823 4.05809 13.788 4.31366 13.788 4.8049C13.7848 4.91091 13.7601 5.01515 13.7155 5.11125C13.6709 5.20735 13.6073 5.29328 13.5286 5.3638C13.4499 5.43432 13.3577 5.48795 13.2577 5.5214C13.1577 5.55485 13.0519 5.56742 12.9469 5.55834C11.6276 5.55834 10.0477 4.47298 8.34577 4.47298C6.82854 4.46634 5.79287 5.60481 5.79287 6.75655C5.79287 7.9083 6.45253 8.26676 7.14188 8.51902L7.15837 8.45264C7.03455 8.3739 6.93422 8.2629 6.86802 8.13142C6.80182 7.99994 6.77222 7.85287 6.78237 7.70583C6.79033 7.57468 6.82401 7.44641 6.88146 7.32841C6.93891 7.21042 7.019 7.10504 7.11712 7.01834C7.21523 6.93164 7.32943 6.86534 7.45312 6.82326C7.57681 6.78117 7.70756 6.76414 7.83783 6.77315C9.2693 6.77315 11.5781 7.978 13.0129 7.978H13.1481V9.67408L11.8288 10.8457L13.1481 12.0506V14.52C12.5967 14.7173 12.0149 14.8151 11.4297 14.8088C9.20333 14.8088 7.80155 13.4513 7.80155 11.1976C7.79704 10.6641 7.87039 10.133 8.01923 9.62098L9.13077 9.12974V14.1085L11.3901 13.1127V8.01119L8.05881 9.50481C8.21422 9.04816 8.45807 8.62705 8.77624 8.26584C9.09442 7.90464 9.48061 7.61051 9.91247 7.40047L9.89598 7.35068C7.66961 7.84191 5.51251 9.54132 5.51251 12.0838C5.51251 15.0179 7.97306 17.0625 10.8393 17.0625C13.8738 17.0625 15.5922 15.0279 15.6087 12.0605L15.5592 12.0506Z" fill="black"/>
</svg>
