<?xml version="1.0" encoding="UTF-8"?>
		<svg xmlns="http://www.w3.org/2000/svg"  preserveAspectRatio="none" width="40" height="20">
			<style>
				* {
					vector-effect: non-scaling-stroke;
				}

				.sparkline {
					stroke-width: 2;
					fill: transparent;
					stroke: black;
				}

				.anomaly {
					stroke-dasharray: 4, 2;
					stroke-dashoffset: 1;
				}

			

			</style>

			<path class="sparkline-fill" style="fill:#efc9c9;" d="M -2.857142857142857 7.761106222388943L 0 7.558407596138252L 2.857142857142857 7.79715626673487L 5.714285714285714 6.926034459376252L 8.571428571428571 6.818195961612073L 11.428571428571429 6.666793888475697L 14.285714285714286 6.187604766205574L 17.142857142857142 6.466578762133169L 20 5.556410125044646L 22.857142857142858 4.210553623520328L 25.714285714285715 4.001300973127101L 28.571428571428573 3.7914282581762784L 31.42857142857143 3.8730394711209364L 34.285714285714285 3.215987935080399L 37.142857142857146 2L 37.142857142857146 20 L -5.714285714285714 20"></path>
					<path class="sparkline" style="stroke:#cf1111;" d="M -2.857142857142857 7.761106222388943L 0 7.558407596138252L 2.857142857142857 7.79715626673487L 5.714285714285714 6.926034459376252L 8.571428571428571 6.818195961612073L 11.428571428571429 6.666793888475697L 14.285714285714286 6.187604766205574L 17.142857142857142 6.466578762133169L 20 5.556410125044646L 22.857142857142858 4.210553623520328L 25.714285714285715 4.001300973127101L 28.571428571428573 3.7914282581762784L 31.42857142857143 3.8730394711209364L 34.285714285714285 3.215987935080399L 37.142857142857146 2"></path>
				
				
		</svg>