<?xml version="1.0" encoding="UTF-8"?>
		<svg xmlns="http://www.w3.org/2000/svg"  preserveAspectRatio="none" width="40" height="20">
			<style>
				* {
					vector-effect: non-scaling-stroke;
				}

				.sparkline {
					stroke-width: 2;
					fill: transparent;
					stroke: black;
				}

				.anomaly {
					stroke-dasharray: 4, 2;
					stroke-dashoffset: 1;
				}

			

			</style>

			<path class="sparkline-fill" style="fill:#e1e1e1;" d="M -2.857142857142857 2L 0 2.1486964422733976L 2.857142857142857 3.191488827557464L 5.714285714285714 3.688234617975791L 8.571428571428571 3.351821344207778L 11.428571428571429 3.209160812914913L 14.285714285714286 4.0843178334326655L 17.142857142857142 4.0679982794660425L 20 5.976340299358727L 22.857142857142858 6.3823548353960415L 25.714285714285715 6.106111309520255L 28.571428571428573 6.641354592058805L 31.42857142857143 6.649875878148972L 34.285714285714285 7.317840922723304L 37.142857142857146 7.765847538913784L 37.142857142857146 20 L -5.714285714285714 20"></path>
					<path class="sparkline" style="stroke:#555555;" d="M -2.857142857142857 2L 0 2.1486964422733976L 2.857142857142857 3.191488827557464L 5.714285714285714 3.688234617975791L 8.571428571428571 3.351821344207778L 11.428571428571429 3.209160812914913L 14.285714285714286 4.0843178334326655L 17.142857142857142 4.0679982794660425L 20 5.976340299358727L 22.857142857142858 6.3823548353960415L 25.714285714285715 6.106111309520255L 28.571428571428573 6.641354592058805L 31.42857142857143 6.649875878148972L 34.285714285714285 7.317840922723304L 37.142857142857146 7.765847538913784"></path>
				
				
		</svg>